<?xml version="1.0" standalone="no"?>
<!DOCTYPE svg PUBLIC "-//W3C//DTD SVG 20010904//EN"
 "http://www.w3.org/TR/2001/REC-SVG-20010904/DTD/svg10.dtd">
<svg version="1.0" xmlns="http://www.w3.org/2000/svg"
 width="225.000000pt" height="225.000000pt" viewBox="0 0 225.000000 225.000000"
 preserveAspectRatio="xMidYMid meet">

<g transform="translate(0.000000,225.000000) scale(0.100000,-0.100000)"
fill="#000000" stroke="none">
<path d="M549 2022 c-217 -125 -409 -238 -427 -250 -17 -13 -44 -44 -59 -70
l-28 -47 -3 -525 c-2 -365 0 -541 8 -577 17 -78 69 -128 234 -223 76 -44 142
-80 147 -80 5 0 9 214 9 491 0 474 1 492 21 538 14 33 34 58 62 78 43 29 90
53 107 53 6 0 11 -93 12 -222 l3 -223 263 -3 262 -2 0 -95 c0 -69 -3 -95 -12
-95 -7 -1 -125 -2 -263 -3 l-250 -2 -3 -321 -2 -321 25 -11 c14 -7 27 -12 28
-12 2 0 2 127 2 283 -1 155 1 292 3 305 l4 22 264 0 264 0 2 227 3 228 93 3
92 3 0 -284 c0 -273 -1 -285 -21 -311 -43 -55 -67 -61 -289 -66 l-205 -5 -3
-252 -2 -253 251 0 251 0 161 94 c89 52 236 137 327 189 234 135 251 147 285
195 l30 44 3 556 c3 622 4 607 -66 674 -20 20 -156 104 -302 188 -146 84 -326
187 -401 231 l-136 79 -175 0 -174 0 -395 -228z m722 -352 c62 -17 120 -87
134 -163 l7 -37 -258 -2 -259 -3 -3 -222 -2 -223 -100 0 -100 0 -1 63 c-11
448 4 523 116 581 24 13 68 16 230 16 110 0 216 -5 236 -10z m289 -280 c45
-31 57 -46 81 -97 17 -37 20 -66 21 -235 2 -160 -1 -198 -14 -223 -31 -58
-102 -105 -158 -105 l-30 0 0 245 0 245 -252 2 -253 3 -3 89 c-2 64 1 92 10
98 7 5 137 8 288 6 273 -4 276 -4 310 -28z"/>
</g>
</svg>
